<svg id="Layer_1" data-name="Layer 1" xmlns="http://www.w3.org/2000/svg" viewBox="0 0 1417.32 903.61"><defs><style>.cls-1{fill:#fff;}</style></defs><polygon class="cls-1" points="610.93 353.99 495.63 496.54 430.55 574.09 534.64 574.09 560.9 574.09 699.9 403.31 610.93 353.99"/><polygon class="cls-1" points="788.66 302.65 789.08 302.16 760.18 286.14 700.98 251.81 664.1 230.42 266.72 0 250.12 8.46 160.8 53.97 318.66 144.72 587.08 299.04 637.18 327.85 725.11 378.4 753.01 394.44 1065.49 574.09 1256.78 574.09 788.66 302.65"/><path class="cls-1" d="M936.5,764.83V647.71h20.6V764.83Z"/><path class="cls-1" d="M1105.81,661.35q16.26,13.65,16.26,44.92,0,19.69-8.4,32.8a50.43,50.43,0,0,1-23,19.43q-14.64,6.33-33.26,6.33h-34.88V647.71h36.87Q1089.54,647.71,1105.81,661.35ZM1080,743.86a28,28,0,0,0,15.38-12.38q5.39-8.94,5.4-25.21,0-21.69-10-31.36t-30.84-9.67h-16.84V747.3h11.35Q1070,747.3,1080,743.86Z"/><path class="cls-1" d="M1201.38,747.66h55.85v17.17h-76.46V647.71h75.55v17h-54.94v32.17h47.71l-2.35,16.63h-45.36Z"/><path class="cls-1" d="M1374.13,647.71l43.19,115.85v1.27h-21.69l-11-31.09h-47l-10.85,31.09h-21.14v-1.27l43-115.85Zm-30.73,69.4h35.25l-17.72-50.24Z"/><polygon class="cls-1" points="494.77 495.68 317.8 143.86 159.95 53.11 159.69 53.24 421.8 573.24 429.69 573.24 494.77 495.68"/><polygon class="cls-1" points="717.89 216.68 806.85 266 881.05 177.57 793.24 126.88 717.89 216.68"/><path class="cls-1" d="M68.5,647.71l43.2,115.85v1.27H90L79,733.74H32L21.15,764.83H0v-1.27L43,647.71Zm-30.72,69.4H73L55.31,666.87Z"/><path class="cls-1" d="M232.39,647.71h21V649l-43,115.86H186.49L143.47,649v-1.26h21.69l33.62,96.69Z"/><path class="cls-1" d="M353.63,647.71l43.2,115.85v1.27H375.14l-11-31.09h-47l-10.84,31.09H285.13v-1.27l43-115.85Zm-30.72,69.4h35.24l-17.71-50.24Z"/><path class="cls-1" d="M521.32,647.71v17.71H482.64v99.41H462V665.42H422.81V647.71Z"/><path class="cls-1" d="M615.81,647.71,659,763.56v1.27H637.31l-11-31.09h-47l-10.85,31.09H547.3v-1.27l43-115.85Zm-30.73,69.4h35.24l-17.71-50.24Z"/><path class="cls-1" d="M802.65,763.56v1.27H779.34l-31.63-44.28h-14.1v44.28H713V647.71h38.68q14.46,0,24.31,4.52t14.82,12.47a34.08,34.08,0,0,1,5,18.43A36,36,0,0,1,789,704.91q-6.78,9.32-19.8,13.11Zm-69-59.28h15.54q12.3,0,18.8-5.15t6.51-15.27q0-9.4-5.88-14.28T751.5,664.7H733.61Z"/><path class="cls-1" d="M261.72,858.43V817.69h3.52v40.74Z"/><path class="cls-1" d="M331.12,817.69v40.74h-4.06l-21.54-31.81c-.17-.25-.53-.79-1.1-1.6A25.51,25.51,0,0,1,303,822.6v35.83h-3.52V817.69h3.81l21.42,31.44c.54.75,1.07,1.53,1.59,2.35a25.59,25.59,0,0,1,1.34,2.36V817.69Z"/><path class="cls-1" d="M393.61,817.69v3.08H378.9v37.66h-3.52V820.77H360.61v-3.08Z"/><path class="cls-1" d="M426.62,855.41H447.3v3H423.09V817.69H447v3H426.62V836.3h17.91l-.38,3H426.62Z"/><path class="cls-1" d="M507.4,858.12v.31h-3.95l-12.92-16.91h-7.9v16.91h-3.52V817.69H491a18.82,18.82,0,0,1,7.67,1.42,10.52,10.52,0,0,1,6.6,10.15,12.42,12.42,0,0,1-1.23,5.57,10.9,10.9,0,0,1-3.67,4.17,14.38,14.38,0,0,1-6,2.27Zm-24.77-19.56h8.27c3.59,0,6.29-.81,8.11-2.45a8.42,8.42,0,0,0,2.73-6.6A8,8,0,0,0,499,823q-2.73-2.32-8.11-2.33h-8.27Z"/><path class="cls-1" d="M536.69,858.43V817.69h3.53v40.74Z"/><path class="cls-1" d="M579.94,856.45a16.92,16.92,0,0,1-6.22-7.45,26.78,26.78,0,0,1-2.14-11.06,23.84,23.84,0,0,1,2.61-11.73,16.91,16.91,0,0,1,6.85-6.94,19.15,19.15,0,0,1,9.21-2.27,17.63,17.63,0,0,1,9.87,2.67,17,17,0,0,1,6.23,7.45,27,27,0,0,1,2.13,11.07,24.35,24.35,0,0,1-2.57,11.75,16.48,16.48,0,0,1-6.83,6.95,19.53,19.53,0,0,1-9.27,2.23A17.67,17.67,0,0,1,579.94,856.45Zm18.15-2.64a14.1,14.1,0,0,0,5.14-6.32,23.08,23.08,0,0,0,1.73-9.24,25.34,25.34,0,0,0-1.63-9.4,14.26,14.26,0,0,0-4.92-6.47,13.47,13.47,0,0,0-8.12-2.36,14.71,14.71,0,0,0-8.29,2.26,13.87,13.87,0,0,0-5.16,6.32,23.33,23.33,0,0,0-1.74,9.27,25.36,25.36,0,0,0,1.64,9.37,14.13,14.13,0,0,0,5,6.51,13.68,13.68,0,0,0,8.15,2.36A14.37,14.37,0,0,0,598.09,853.81Z"/><path class="cls-1" d="M668.14,858.12v.31h-3.95l-12.91-16.91h-7.9v16.91h-3.52V817.69h11.88a18.82,18.82,0,0,1,7.67,1.42,10.52,10.52,0,0,1,6.6,10.15,12.42,12.42,0,0,1-1.23,5.57,11,11,0,0,1-3.67,4.17,14.38,14.38,0,0,1-6,2.27Zm-24.76-19.56h8.27c3.59,0,6.29-.81,8.11-2.45a8.42,8.42,0,0,0,2.73-6.6,8,8,0,0,0-2.73-6.47q-2.73-2.32-8.11-2.33h-8.27Z"/><path class="cls-1" d="M761.9,822.66q5.25,5,5.26,15.4t-5.78,15.37q-5.79,5-16.6,5h-9.31V817.69h10.88Q756.66,817.69,761.9,822.66Zm-7.19,31.24a12.5,12.5,0,0,0,6.53-5.31q2.4-3.8,2.4-10.53,0-8.67-4.12-13t-12.86-4.34H739v34.7h5.79A29.05,29.05,0,0,0,754.71,853.9Z"/><path class="cls-1" d="M802,855.41h20.68v3H798.46V817.69h23.89v3H802V836.3H819.9l-.37,3H802Z"/><path class="cls-1" d="M857.62,858a22.83,22.83,0,0,1-6.53-3.43l1.69-2.51a19.75,19.75,0,0,0,6,3.08,21.3,21.3,0,0,0,6.32,1q5.28,0,7.86-2.15a7.24,7.24,0,0,0,2.58-5.9,6.75,6.75,0,0,0-1.19-4.12,9.45,9.45,0,0,0-3.21-2.67,45.93,45.93,0,0,0-5.6-2.39l-1.19-.38a52.17,52.17,0,0,1-6.26-2.7,11.5,11.5,0,0,1-3.87-3.3,8.43,8.43,0,0,1-1.5-5.13,9,9,0,0,1,1.79-5.56,11.21,11.21,0,0,1,4.75-3.58,16.45,16.45,0,0,1,6.41-1.23,23.15,23.15,0,0,1,6.53.91,24.38,24.38,0,0,1,6.29,3l-1.7,2.51a23.24,23.24,0,0,0-5.49-2.57,19.47,19.47,0,0,0-5.76-.82,13.21,13.21,0,0,0-4.4.75,8.31,8.31,0,0,0-3.52,2.33,5.88,5.88,0,0,0-1.38,4,6.12,6.12,0,0,0,.91,3.46A7.8,7.8,0,0,0,860,833a39.25,39.25,0,0,0,5.37,2.33l1.2.44a56.19,56.19,0,0,1,6.48,2.7,12.67,12.67,0,0,1,4.24,3.58,9.56,9.56,0,0,1,1.79,6,10.58,10.58,0,0,1-1.64,5.94,10.33,10.33,0,0,1-4.77,3.8,19.68,19.68,0,0,1-7.61,1.32A23.67,23.67,0,0,1,857.62,858Z"/><path class="cls-1" d="M910.81,858.43V817.69h3.52v40.74Z"/><path class="cls-1" d="M977.88,836.62v18.92a37,37,0,0,1-6.69,2.7,25.17,25.17,0,0,1-6.89.88A18.68,18.68,0,0,1,954,856.45a16.28,16.28,0,0,1-6.26-7.42,27.37,27.37,0,0,1-2.07-11,23.8,23.8,0,0,1,2.67-11.79,17,17,0,0,1,7-7,19.66,19.66,0,0,1,9.14-2.23,21.81,21.81,0,0,1,12.45,3.59l-1.64,2.64a19.14,19.14,0,0,0-10.65-3.15,15.07,15.07,0,0,0-8.38,2.26,14.29,14.29,0,0,0-5.26,6.29,22.44,22.44,0,0,0-1.8,9.24,26.06,26.06,0,0,0,1.58,9.43,13.35,13.35,0,0,0,5,6.41A14.75,14.75,0,0,0,964.3,856a22.15,22.15,0,0,0,5.32-.59,25.72,25.72,0,0,0,4.74-1.74V839.57H963.24l.37-3Z"/><path class="cls-1" d="M1041.88,817.69v40.74h-4.06l-21.54-31.81c-.17-.25-.53-.79-1.1-1.6a23.58,23.58,0,0,1-1.46-2.42v35.83h-3.53V817.69H1014l21.42,31.44c.53.75,1.07,1.53,1.59,2.35s1,1.61,1.34,2.36V817.69Z"/><path class="cls-1" d="M1079.6,855.41h20.68v3h-24.2V817.69H1100v3H1079.6V836.3h17.92l-.38,3H1079.6Z"/><path class="cls-1" d="M1160.38,858.12v.31h-4l-12.91-16.91h-7.91v16.91h-3.52V817.69H1144a18.74,18.74,0,0,1,7.66,1.42,10.51,10.51,0,0,1,6.61,10.15,12.55,12.55,0,0,1-1.23,5.57,10.93,10.93,0,0,1-3.68,4.17,14.28,14.28,0,0,1-6,2.27Zm-24.77-19.56h8.27c3.59,0,6.3-.81,8.12-2.45a8.45,8.45,0,0,0,2.73-6.6A8.06,8.06,0,0,0,1152,823q-2.73-2.32-8.12-2.33h-8.27Z"/><path class="cls-1" d="M355,897.72q88.41-3.4,176.81-4.58c29.47-.54,58.94-.66,88.41-1l88.4-.33,88.41.31c29.47.33,58.93.44,88.4,1q88.41,1.15,176.81,4.6-88.39,3.43-176.81,4.6c-29.47.55-58.93.66-88.4,1l-88.41.31-88.4-.32c-29.47-.32-58.94-.44-88.41-1Q443.44,901.14,355,897.72Z"/></svg>